<svg version="1.1" xmlns="http://www.w3.org/2000/svg" xmlns:xlink="http://www.w3.org/1999/xlink" width="278.17724609375" height="267"><defs/><g><text fill="#eeeeee" stroke="none" font-family="Arial" font-size="24px" font-style="normal" font-weight="normal" text-decoration="none" x="0" y="0"></text><text fill="#eeeeee" stroke="none" font-family="Arial" font-size="24px" font-style="normal" font-weight="normal" text-decoration="none" x="0" y="30"></text><text fill="#eeeeee" stroke="none" font-family="Arial" font-size="24px" font-style="normal" font-weight="normal" text-decoration="none" x="0" y="60"></text><text fill="#eeeeee" stroke="none" font-family="Arial" font-size="24px" font-style="normal" font-weight="normal" text-decoration="none" x="0" y="90"></text><text fill="#eeeeee" stroke="none" font-family="Arial" font-size="24px" font-style="normal" font-weight="normal" text-decoration="none" x="0" y="120"></text><text fill="#eeeeee" stroke="none" font-family="Arial" font-size="24px" font-style="normal" font-weight="normal" text-decoration="none" x="0" y="150"></text><text fill="#eeeeee" stroke="none" font-family="Arial" font-size="24px" font-style="normal" font-weight="normal" text-decoration="none" x="0" y="180"></text><text fill="#eeeeee" stroke="none" font-family="Arial" font-size="24px" font-style="normal" font-weight="normal" text-decoration="none" x="0" y="210"></text><text fill="#eeeeee" stroke="none" font-family="Arial" font-size="24px" font-style="normal" font-weight="normal" text-decoration="none" x="0" y="240"></text><text fill="#eeeeee" stroke="none" font-family="Arial" font-size="24px" font-style="normal" font-weight="normal" text-decoration="none" x="200" y="0"></text><text fill="#eeeeee" stroke="none" font-family="Arial" font-size="24px" font-style="normal" font-weight="normal" text-decoration="none" x="200" y="30"></text><text fill="#eeeeee" stroke="none" font-family="Arial" font-size="24px" font-style="normal" font-weight="normal" text-decoration="none" x="200" y="60"></text><text fill="#eeeeee" stroke="none" font-family="Arial" font-size="24px" font-style="normal" font-weight="normal" text-decoration="none" x="200" y="90"></text><text fill="#eeeeee" stroke="none" font-family="Arial" font-size="24px" font-style="normal" font-weight="normal" text-decoration="none" x="200" y="120"></text><text fill="#eeeeee" stroke="none" font-family="Arial" font-size="24px" font-style="normal" font-weight="normal" text-decoration="none" x="200" y="150"></text><text fill="#eeeeee" stroke="none" font-family="Arial" font-size="24px" font-style="normal" font-weight="normal" text-decoration="none" x="200" y="180"></text><text fill="#eeeeee" stroke="none" font-family="Arial" font-size="24px" font-style="normal" font-weight="normal" text-decoration="none" x="200" y="210"></text><text fill="#eeeeee" stroke="none" font-family="Arial" font-size="24px" font-style="normal" font-weight="normal" text-decoration="none" x="200" y="240"></text><g transform="translate(-94,-302) scale(1,1)"><path fill="#ffffff" stroke="none" d="M 240.40935031960228 321.68 C 240.40935031960228 316.886167936 244.2951926445477 313 249.088623046875 313 C 253.8820534492023 313 257.76789577414775 316.886167936 257.76789577414775 321.68 C 257.76789577414775 326.473832064 253.8820534492023 330.36 249.088623046875 330.36 C 244.2951926445477 330.36 240.40935031960228 326.473832064 240.40935031960228 321.68 Z"/></g><g transform="translate(-94,-302) scale(1,1)"><path fill="none" stroke="#000000" d="M 240.40935031960228 321.68 C 240.40935031960228 316.886167936 244.2951926445477 313 249.088623046875 313 C 253.8820534492023 313 257.76789577414775 316.886167936 257.76789577414775 321.68 C 257.76789577414775 326.473832064 253.8820534492023 330.36 249.088623046875 330.36 C 244.2951926445477 330.36 240.40935031960228 326.473832064 240.40935031960228 321.68 Z" stroke-miterlimit="10"/></g><g transform="translate(-94,-302) scale(1,1)"><path fill="none" stroke="#000000" d="M 249.088623046875 330.36 L 249.088623046875 347.64" stroke-miterlimit="10"/></g><g transform="translate(-94,-302) scale(1,1)"><path fill="none" stroke="#000000" d="M 239.89880486505683 336.84 L 258.27844122869317 336.84" stroke-miterlimit="10"/></g><g transform="translate(-94,-302) scale(1,1)"><path fill="none" stroke="#000000" d="M 249.088623046875 347.64 L 236.32498668323865 365" stroke-miterlimit="10"/></g><g transform="translate(-94,-302) scale(1,1)"><path fill="none" stroke="#000000" d="M 249.088623046875 347.64 L 261.85225941051135 365" stroke-miterlimit="10"/></g><g transform="translate(-94,-302) scale(1,1)"><g><path fill="none" stroke="none"/><text fill="#000000" stroke="none" font-family="Arial" font-size="13px" font-style="normal" font-weight="bold" text-decoration="none" x="228.864990234375" y="384">Utente</text></g></g><g transform="translate(-94,-302) scale(1,1)"><path fill="#ffffff" stroke="none" d="M 151.83024875710228 489.68 C 151.83024875710228 484.886167936 155.71609108204774 481 160.509521484375 481 C 165.30295188670226 481 169.18879421164772 484.886167936 169.18879421164772 489.68 C 169.18879421164772 494.473832064 165.30295188670226 498.36 160.509521484375 498.36 C 155.71609108204774 498.36 151.83024875710228 494.473832064 151.83024875710228 489.68 Z"/></g><g transform="translate(-94,-302) scale(1,1)"><path fill="none" stroke="#000000" d="M 151.83024875710228 489.68 C 151.83024875710228 484.886167936 155.71609108204774 481 160.509521484375 481 C 165.30295188670226 481 169.18879421164772 484.886167936 169.18879421164772 489.68 C 169.18879421164772 494.473832064 165.30295188670226 498.36 160.509521484375 498.36 C 155.71609108204774 498.36 151.83024875710228 494.473832064 151.83024875710228 489.68 Z" stroke-miterlimit="10"/></g><g transform="translate(-94,-302) scale(1,1)"><path fill="none" stroke="#000000" d="M 160.509521484375 498.36 L 160.509521484375 515.64" stroke-miterlimit="10"/></g><g transform="translate(-94,-302) scale(1,1)"><path fill="none" stroke="#000000" d="M 151.31970330255683 504.84 L 169.69933966619317 504.84" stroke-miterlimit="10"/></g><g transform="translate(-94,-302) scale(1,1)"><path fill="none" stroke="#000000" d="M 160.509521484375 515.64 L 147.74588512073865 533" stroke-miterlimit="10"/></g><g transform="translate(-94,-302) scale(1,1)"><path fill="none" stroke="#000000" d="M 160.509521484375 515.64 L 173.27315784801135 533" stroke-miterlimit="10"/></g><g transform="translate(-94,-302) scale(1,1)"><g><path fill="none" stroke="none"/><text fill="#000000" stroke="none" font-family="Arial" font-size="13px" font-style="normal" font-weight="bold" text-decoration="none" x="108.5" y="552">Utente registrato</text></g></g><g transform="translate(-94,-302) scale(1,1)"><path fill="none" stroke="#000000" d="M 181 479 L 227 392" stroke-miterlimit="10"/></g><g transform="translate(-94,-302) scale(1,1)"><path fill="#FFFFFF" stroke="none" d="M 224.94223083363764 413.9035519050671 L 227 392 L 210.0567873842041 406.03308755249304"/></g><g transform="translate(-94,-302) scale(1,1)"><path fill="none" stroke="#000000" d="M 224.94223083363764 413.9035519050671 L 227 392 L 210.0567873842041 406.03308755249304 L 224.94223083363764 413.9035519050671" stroke-miterlimit="10"/></g><g transform="translate(-94,-302) scale(1,1)"><path fill="#ffffff" stroke="none" d="M 328.40935031960225 489.68 C 328.40935031960225 484.886167936 332.29519264454774 481 337.088623046875 481 C 341.88205344920226 481 345.76789577414775 484.886167936 345.76789577414775 489.68 C 345.76789577414775 494.473832064 341.88205344920226 498.36 337.088623046875 498.36 C 332.29519264454774 498.36 328.40935031960225 494.473832064 328.40935031960225 489.68 Z"/></g><g transform="translate(-94,-302) scale(1,1)"><path fill="none" stroke="#000000" d="M 328.40935031960225 489.68 C 328.40935031960225 484.886167936 332.29519264454774 481 337.088623046875 481 C 341.88205344920226 481 345.76789577414775 484.886167936 345.76789577414775 489.68 C 345.76789577414775 494.473832064 341.88205344920226 498.36 337.088623046875 498.36 C 332.29519264454774 498.36 328.40935031960225 494.473832064 328.40935031960225 489.68 Z" stroke-miterlimit="10"/></g><g transform="translate(-94,-302) scale(1,1)"><path fill="none" stroke="#000000" d="M 337.088623046875 498.36 L 337.088623046875 515.64" stroke-miterlimit="10"/></g><g transform="translate(-94,-302) scale(1,1)"><path fill="none" stroke="#000000" d="M 327.89880486505683 504.84 L 346.27844122869317 504.84" stroke-miterlimit="10"/></g><g transform="translate(-94,-302) scale(1,1)"><path fill="none" stroke="#000000" d="M 337.088623046875 515.64 L 324.32498668323865 533" stroke-miterlimit="10"/></g><g transform="translate(-94,-302) scale(1,1)"><path fill="none" stroke="#000000" d="M 337.088623046875 515.64 L 349.85225941051135 533" stroke-miterlimit="10"/></g><g transform="translate(-94,-302) scale(1,1)"><g><path fill="none" stroke="none"/><text fill="#000000" stroke="none" font-family="Arial" font-size="13px" font-style="normal" font-weight="bold" text-decoration="none" x="316.86181640625" y="552">Ospite</text></g></g><g transform="translate(-94,-302) scale(1,1)"><path fill="none" stroke="#000000" d="M 316 479 L 270 392" stroke-miterlimit="10"/></g><g transform="translate(-94,-302) scale(1,1)"><path fill="#FFFFFF" stroke="none" d="M 286.94321261579586 406.03308755249304 L 270 392 L 272.0577691663624 413.9035519050671"/></g><g transform="translate(-94,-302) scale(1,1)"><path fill="none" stroke="#000000" d="M 286.94321261579586 406.03308755249304 L 270 392 L 272.0577691663624 413.9035519050671 L 286.94321261579586 406.03308755249304" stroke-miterlimit="10"/></g></g></svg>