<svg version="1.1" xmlns="http://www.w3.org/2000/svg" xmlns:xlink="http://www.w3.org/1999/xlink" width="716" height="444"><defs/><g><text fill="#eeeeee" stroke="none" font-family="Arial" font-size="24px" font-style="normal" font-weight="normal" text-decoration="none" x="0" y="0"></text><text fill="#eeeeee" stroke="none" font-family="Arial" font-size="24px" font-style="normal" font-weight="normal" text-decoration="none" x="0" y="30"></text><text fill="#eeeeee" stroke="none" font-family="Arial" font-size="24px" font-style="normal" font-weight="normal" text-decoration="none" x="0" y="60"></text><text fill="#eeeeee" stroke="none" font-family="Arial" font-size="24px" font-style="normal" font-weight="normal" text-decoration="none" x="0" y="90"></text><text fill="#eeeeee" stroke="none" font-family="Arial" font-size="24px" font-style="normal" font-weight="normal" text-decoration="none" x="0" y="120"></text><text fill="#eeeeee" stroke="none" font-family="Arial" font-size="24px" font-style="normal" font-weight="normal" text-decoration="none" x="0" y="150"></text><text fill="#eeeeee" stroke="none" font-family="Arial" font-size="24px" font-style="normal" font-weight="normal" text-decoration="none" x="0" y="180"></text><text fill="#eeeeee" stroke="none" font-family="Arial" font-size="24px" font-style="normal" font-weight="normal" text-decoration="none" x="0" y="210"></text><text fill="#eeeeee" stroke="none" font-family="Arial" font-size="24px" font-style="normal" font-weight="normal" text-decoration="none" x="0" y="240"></text><text fill="#eeeeee" stroke="none" font-family="Arial" font-size="24px" font-style="normal" font-weight="normal" text-decoration="none" x="0" y="270"></text><text fill="#eeeeee" stroke="none" font-family="Arial" font-size="24px" font-style="normal" font-weight="normal" text-decoration="none" x="0" y="300"></text><text fill="#eeeeee" stroke="none" font-family="Arial" font-size="24px" font-style="normal" font-weight="normal" text-decoration="none" x="0" y="330"></text><text fill="#eeeeee" stroke="none" font-family="Arial" font-size="24px" font-style="normal" font-weight="normal" text-decoration="none" x="0" y="360"></text><text fill="#eeeeee" stroke="none" font-family="Arial" font-size="24px" font-style="normal" font-weight="normal" text-decoration="none" x="0" y="390"></text><text fill="#eeeeee" stroke="none" font-family="Arial" font-size="24px" font-style="normal" font-weight="normal" text-decoration="none" x="0" y="420"></text><text fill="#eeeeee" stroke="none" font-family="Arial" font-size="24px" font-style="normal" font-weight="normal" text-decoration="none" x="200" y="0"></text><text fill="#eeeeee" stroke="none" font-family="Arial" font-size="24px" font-style="normal" font-weight="normal" text-decoration="none" x="200" y="30"></text><text fill="#eeeeee" stroke="none" font-family="Arial" font-size="24px" font-style="normal" font-weight="normal" text-decoration="none" x="200" y="60"></text><text fill="#eeeeee" stroke="none" font-family="Arial" font-size="24px" font-style="normal" font-weight="normal" text-decoration="none" x="200" y="90"></text><text fill="#eeeeee" stroke="none" font-family="Arial" font-size="24px" font-style="normal" font-weight="normal" text-decoration="none" x="200" y="120"></text><text fill="#eeeeee" stroke="none" font-family="Arial" font-size="24px" font-style="normal" font-weight="normal" text-decoration="none" x="200" y="150"></text><text fill="#eeeeee" stroke="none" font-family="Arial" font-size="24px" font-style="normal" font-weight="normal" text-decoration="none" x="200" y="180"></text><text fill="#eeeeee" stroke="none" font-family="Arial" font-size="24px" font-style="normal" font-weight="normal" text-decoration="none" x="200" y="210"></text><text fill="#eeeeee" stroke="none" font-family="Arial" font-size="24px" font-style="normal" font-weight="normal" text-decoration="none" x="200" y="240"></text><text fill="#eeeeee" stroke="none" font-family="Arial" font-size="24px" font-style="normal" font-weight="normal" text-decoration="none" x="200" y="270"></text><text fill="#eeeeee" stroke="none" font-family="Arial" font-size="24px" font-style="normal" font-weight="normal" text-decoration="none" x="200" y="300"></text><text fill="#eeeeee" stroke="none" font-family="Arial" font-size="24px" font-style="normal" font-weight="normal" text-decoration="none" x="200" y="330"></text><text fill="#eeeeee" stroke="none" font-family="Arial" font-size="24px" font-style="normal" font-weight="normal" text-decoration="none" x="200" y="360"></text><text fill="#eeeeee" stroke="none" font-family="Arial" font-size="24px" font-style="normal" font-weight="normal" text-decoration="none" x="200" y="390"></text><text fill="#eeeeee" stroke="none" font-family="Arial" font-size="24px" font-style="normal" font-weight="normal" text-decoration="none" x="200" y="420"></text><text fill="#eeeeee" stroke="none" font-family="Arial" font-size="24px" font-style="normal" font-weight="normal" text-decoration="none" x="400" y="0"></text><text fill="#eeeeee" stroke="none" font-family="Arial" font-size="24px" font-style="normal" font-weight="normal" text-decoration="none" x="400" y="30"></text><text fill="#eeeeee" stroke="none" font-family="Arial" font-size="24px" font-style="normal" font-weight="normal" text-decoration="none" x="400" y="60"></text><text fill="#eeeeee" stroke="none" font-family="Arial" font-size="24px" font-style="normal" font-weight="normal" text-decoration="none" x="400" y="90"></text><text fill="#eeeeee" stroke="none" font-family="Arial" font-size="24px" font-style="normal" font-weight="normal" text-decoration="none" x="400" y="120"></text><text fill="#eeeeee" stroke="none" font-family="Arial" font-size="24px" font-style="normal" font-weight="normal" text-decoration="none" x="400" y="150"></text><text fill="#eeeeee" stroke="none" font-family="Arial" font-size="24px" font-style="normal" font-weight="normal" text-decoration="none" x="400" y="180"></text><text fill="#eeeeee" stroke="none" font-family="Arial" font-size="24px" font-style="normal" font-weight="normal" text-decoration="none" x="400" y="210"></text><text fill="#eeeeee" stroke="none" font-family="Arial" font-size="24px" font-style="normal" font-weight="normal" text-decoration="none" x="400" y="240"></text><text fill="#eeeeee" stroke="none" font-family="Arial" font-size="24px" font-style="normal" font-weight="normal" text-decoration="none" x="400" y="270"></text><text fill="#eeeeee" stroke="none" font-family="Arial" font-size="24px" font-style="normal" font-weight="normal" text-decoration="none" x="400" y="300"></text><text fill="#eeeeee" stroke="none" font-family="Arial" font-size="24px" font-style="normal" font-weight="normal" text-decoration="none" x="400" y="330"></text><text fill="#eeeeee" stroke="none" font-family="Arial" font-size="24px" font-style="normal" font-weight="normal" text-decoration="none" x="400" y="360"></text><text fill="#eeeeee" stroke="none" font-family="Arial" font-size="24px" font-style="normal" font-weight="normal" text-decoration="none" x="400" y="390"></text><text fill="#eeeeee" stroke="none" font-family="Arial" font-size="24px" font-style="normal" font-weight="normal" text-decoration="none" x="400" y="420"></text><text fill="#eeeeee" stroke="none" font-family="Arial" font-size="24px" font-style="normal" font-weight="normal" text-decoration="none" x="600" y="0"></text><text fill="#eeeeee" stroke="none" font-family="Arial" font-size="24px" font-style="normal" font-weight="normal" text-decoration="none" x="600" y="30"></text><text fill="#eeeeee" stroke="none" font-family="Arial" font-size="24px" font-style="normal" font-weight="normal" text-decoration="none" x="600" y="60"></text><text fill="#eeeeee" stroke="none" font-family="Arial" font-size="24px" font-style="normal" font-weight="normal" text-decoration="none" x="600" y="90"></text><text fill="#eeeeee" stroke="none" font-family="Arial" font-size="24px" font-style="normal" font-weight="normal" text-decoration="none" x="600" y="120"></text><text fill="#eeeeee" stroke="none" font-family="Arial" font-size="24px" font-style="normal" font-weight="normal" text-decoration="none" x="600" y="150"></text><text fill="#eeeeee" stroke="none" font-family="Arial" font-size="24px" font-style="normal" font-weight="normal" text-decoration="none" x="600" y="180"></text><text fill="#eeeeee" stroke="none" font-family="Arial" font-size="24px" font-style="normal" font-weight="normal" text-decoration="none" x="600" y="210"></text><text fill="#eeeeee" stroke="none" font-family="Arial" font-size="24px" font-style="normal" font-weight="normal" text-decoration="none" x="600" y="240"></text><text fill="#eeeeee" stroke="none" font-family="Arial" font-size="24px" font-style="normal" font-weight="normal" text-decoration="none" x="600" y="270"></text><text fill="#eeeeee" stroke="none" font-family="Arial" font-size="24px" font-style="normal" font-weight="normal" text-decoration="none" x="600" y="300"></text><text fill="#eeeeee" stroke="none" font-family="Arial" font-size="24px" font-style="normal" font-weight="normal" text-decoration="none" x="600" y="330"></text><text fill="#eeeeee" stroke="none" font-family="Arial" font-size="24px" font-style="normal" font-weight="normal" text-decoration="none" x="600" y="360"></text><text fill="#eeeeee" stroke="none" font-family="Arial" font-size="24px" font-style="normal" font-weight="normal" text-decoration="none" x="600" y="390"></text><text fill="#eeeeee" stroke="none" font-family="Arial" font-size="24px" font-style="normal" font-weight="normal" text-decoration="none" x="600" y="420"></text><g transform="translate(-46,-302) scale(1,1)"><path fill="none" stroke="#000000" d="M 152 312 L 752 312 L 752 736 L 152 736 L 152 312" stroke-miterlimit="10"/></g><g transform="translate(-46,-302) scale(1,1)"><path fill="#ffffff" stroke="none" d="M 152 312 L 152 334 L 326.74853515625 334 L 337.74853515625 323 L 337.74853515625 312 L 152 312"/></g><g transform="translate(-46,-302) scale(1,1)"><path fill="none" stroke="#000000" d="M 152 312 L 152 334 L 326.74853515625 334 L 337.74853515625 323 L 337.74853515625 312 L 152 312 L 152 312" stroke-miterlimit="10"/></g><g transform="translate(-46,-302) scale(1,1)"><g><path fill="none" stroke="none"/><text fill="#000000" stroke="none" font-family="Arial" font-size="13px" font-style="normal" font-weight="normal" text-decoration="none" x="183.9599609375" y="328">Visualizzazione location</text></g></g><g transform="translate(-46,-302) scale(1,1)"><g><path fill="none" stroke="none"/><text fill="#000000" stroke="none" font-family="Arial" font-size="13px" font-style="normal" font-weight="bold" text-decoration="none" x="155.924072265625" y="328">pkg</text></g></g><g transform="translate(-46,-302) scale(1,1)"><path fill="#ffffff" stroke="none" d="M 81.32463352272727 497.68 C 81.32463352272727 492.886167936 85.21047584767273 489 90.00390625 489 C 94.79733665232727 489 98.68317897727273 492.886167936 98.68317897727273 497.68 C 98.68317897727273 502.473832064 94.79733665232727 506.36 90.00390625 506.36 C 85.21047584767273 506.36 81.32463352272727 502.473832064 81.32463352272727 497.68 Z"/></g><g transform="translate(-46,-302) scale(1,1)"><path fill="none" stroke="#000000" d="M 81.32463352272727 497.68 C 81.32463352272727 492.886167936 85.21047584767273 489 90.00390625 489 C 94.79733665232727 489 98.68317897727273 492.886167936 98.68317897727273 497.68 C 98.68317897727273 502.473832064 94.79733665232727 506.36 90.00390625 506.36 C 85.21047584767273 506.36 81.32463352272727 502.473832064 81.32463352272727 497.68 Z" stroke-miterlimit="10"/></g><g transform="translate(-46,-302) scale(1,1)"><path fill="none" stroke="#000000" d="M 90.00390625 506.36 L 90.00390625 523.64" stroke-miterlimit="10"/></g><g transform="translate(-46,-302) scale(1,1)"><path fill="none" stroke="#000000" d="M 80.81408806818182 512.84 L 99.19372443181818 512.84" stroke-miterlimit="10"/></g><g transform="translate(-46,-302) scale(1,1)"><path fill="none" stroke="#000000" d="M 90.00390625 523.64 L 77.24026988636363 541" stroke-miterlimit="10"/></g><g transform="translate(-46,-302) scale(1,1)"><path fill="none" stroke="#000000" d="M 90.00390625 523.64 L 102.76754261363637 541" stroke-miterlimit="10"/></g><g transform="translate(-46,-302) scale(1,1)"><g><path fill="none" stroke="none"/><text fill="#000000" stroke="none" font-family="Arial" font-size="13px" font-style="normal" font-weight="bold" text-decoration="none" x="60.5" y="560">Visitatore</text></g></g><g transform="translate(-46,-302) scale(1,1)"><path fill="#ffffff" stroke="none" d="M 256 396.5 C 256 371.9233264 298.9806592 352 352 352 C 405.0193408 352 448 371.9233264 448 396.5 C 448 421.0766736 405.0193408 441 352 441 C 298.9806592 441 256 421.0766736 256 396.5 Z"/></g><g transform="translate(-46,-302) scale(1,1)"><path fill="none" stroke="#000000" d="M 256 396.5 C 256 371.9233264 298.9806592 352 352 352 C 405.0193408 352 448 371.9233264 448 396.5 C 448 421.0766736 405.0193408 441 352 441 C 298.9806592 441 256 421.0766736 256 396.5 Z" stroke-miterlimit="10"/></g><g transform="translate(-46,-302) scale(1,1)"><g><path fill="none" stroke="none"/><text fill="#000000" stroke="none" font-family="Arial" font-size="13px" font-style="normal" font-weight="bold" text-decoration="none" x="327.44091796875" y="382.5">SUCO-1</text><text fill="#000000" stroke="none" font-family="Arial" font-size="13px" font-style="normal" font-weight="bold" text-decoration="none" x="304.43701171875" y="395.5">Visualizzazione</text><text fill="#000000" stroke="none" font-family="Arial" font-size="13px" font-style="normal" font-weight="bold" text-decoration="none" x="305.75732421875" y="408.5">della lista delle</text><text fill="#000000" stroke="none" font-family="Arial" font-size="13px" font-style="normal" font-weight="bold" text-decoration="none" x="327.082275390625" y="421.5">location</text></g></g><g transform="translate(-46,-302) scale(1,1)"><path fill="none" stroke="#000000" d="M 125 509 L 260 442" stroke-miterlimit="10"/></g><g transform="translate(-46,-302) scale(1,1)"><path fill="#ffffff" stroke="none" d="M 256 532.5 C 256 507.9233264 298.9806592 488 352 488 C 405.0193408 488 448 507.9233264 448 532.5 C 448 557.0766736 405.0193408 577 352 577 C 298.9806592 577 256 557.0766736 256 532.5 Z"/></g><g transform="translate(-46,-302) scale(1,1)"><path fill="none" stroke="#000000" d="M 256 532.5 C 256 507.9233264 298.9806592 488 352 488 C 405.0193408 488 448 507.9233264 448 532.5 C 448 557.0766736 405.0193408 577 352 577 C 298.9806592 577 256 557.0766736 256 532.5 Z" stroke-miterlimit="10"/></g><g transform="translate(-46,-302) scale(1,1)"><g><path fill="none" stroke="none"/><text fill="#000000" stroke="none" font-family="Arial" font-size="13px" font-style="normal" font-weight="bold" text-decoration="none" x="327.44091796875" y="518.5">SUCO-2</text><text fill="#000000" stroke="none" font-family="Arial" font-size="13px" font-style="normal" font-weight="bold" text-decoration="none" x="293.23974609375" y="531.5">Visualizzazione dei</text><text fill="#000000" stroke="none" font-family="Arial" font-size="13px" font-style="normal" font-weight="bold" text-decoration="none" x="307.944091796875" y="544.5">dettagli di una</text><text fill="#000000" stroke="none" font-family="Arial" font-size="13px" font-style="normal" font-weight="bold" text-decoration="none" x="327.082275390625" y="557.5">location</text></g></g><g transform="translate(-46,-302) scale(1,1)"><path fill="none" stroke="#000000" d="M 125 528 L 255 530" stroke-miterlimit="10"/></g><g transform="translate(-46,-302) scale(1,1)"><path fill="#ffffff" stroke="none" d="M 520 535 C 520 500.2060576 564.77152 472 620 472 C 675.22848 472 720 500.2060576 720 535 C 720 569.7939424 675.22848 598 620 598 C 564.77152 598 520 569.7939424 520 535 Z"/></g><g transform="translate(-46,-302) scale(1,1)"><path fill="none" stroke="#000000" d="M 520 535 C 520 500.2060576 564.77152 472 620 472 C 675.22848 472 720 500.2060576 720 535 C 720 569.7939424 675.22848 598 620 598 C 564.77152 598 520 569.7939424 520 535 Z" stroke-miterlimit="10"/></g><g transform="translate(-46,-302) scale(1,1)"><g><path fill="none" stroke="none"/><text fill="#000000" stroke="none" font-family="Arial" font-size="13px" font-style="normal" font-weight="bold" text-decoration="none" x="595.44091796875" y="508">SUCO-4</text><text fill="#000000" stroke="none" font-family="Arial" font-size="13px" font-style="normal" font-weight="bold" text-decoration="none" x="555.10791015625" y="521">Visualizzazione di un</text><text fill="#000000" stroke="none" font-family="Arial" font-size="13px" font-style="normal" font-weight="bold" text-decoration="none" x="570.15185546875" y="534">errore durante il</text><text fill="#000000" stroke="none" font-family="Arial" font-size="13px" font-style="normal" font-weight="bold" text-decoration="none" x="570.50732421875" y="547">caricamento dei</text><text fill="#000000" stroke="none" font-family="Arial" font-size="13px" font-style="normal" font-weight="bold" text-decoration="none" x="575.944091796875" y="560">dettagli di una</text><text fill="#000000" stroke="none" font-family="Arial" font-size="13px" font-style="normal" font-weight="bold" text-decoration="none" x="595.082275390625" y="573">location</text></g></g><g transform="translate(-46,-302) scale(1,1)"><path fill="none" stroke="#000000" d="M 519 534 L 449 533" stroke-miterlimit="10" stroke-dasharray="3"/></g><g transform="translate(-46,-302) scale(1,1)"><path fill="none" stroke="#000000" d="M 459.2217678412432 528.936077978144 L 449 533 L 459.1015081761254 537.3542545363899" stroke-miterlimit="10"/></g><g transform="translate(-46,-302) scale(1,1)"><g><path fill="none" stroke="none"/><text fill="#000000" stroke="none" font-family="Arial" font-size="13px" font-style="normal" font-weight="normal" text-decoration="none" x="456.5" y="568">«extend»</text></g></g><g transform="translate(-46,-302) scale(1,1)"><path fill="none" stroke="#000000" d="M 519 483 L 441 442" stroke-miterlimit="10" stroke-dasharray="3"/></g><g transform="translate(-46,-302) scale(1,1)"><path fill="none" stroke="#000000" d="M 451.954235367551 443.00236096906013 L 441 442 L 448.03703787268967 450.45459034952796" stroke-miterlimit="10"/></g><g transform="translate(-46,-302) scale(1,1)"><g><path fill="none" stroke="none"/><text fill="#000000" stroke="none" font-family="Arial" font-size="13px" font-style="normal" font-weight="normal" text-decoration="none" x="439.5" y="493">«extend»</text></g></g><g transform="translate(-46,-302) scale(1,1)"><path fill="#ffffff" stroke="none" d="M 256 670 C 256 649.0131776 302.5623808 632 360 632 C 417.4376192 632 464 649.0131776 464 670 C 464 690.9868224 417.4376192 708 360 708 C 302.5623808 708 256 690.9868224 256 670 Z"/></g><g transform="translate(-46,-302) scale(1,1)"><path fill="none" stroke="#000000" d="M 256 670 C 256 649.0131776 302.5623808 632 360 632 C 417.4376192 632 464 649.0131776 464 670 C 464 690.9868224 417.4376192 708 360 708 C 302.5623808 708 256 690.9868224 256 670 Z" stroke-miterlimit="10"/></g><g transform="translate(-46,-302) scale(1,1)"><g><path fill="none" stroke="none"/><text fill="#000000" stroke="none" font-family="Arial" font-size="13px" font-style="normal" font-weight="bold" text-decoration="none" x="335.44091796875" y="662.5">SUCO-3</text><text fill="#000000" stroke="none" font-family="Arial" font-size="13px" font-style="normal" font-weight="bold" text-decoration="none" x="312.43701171875" y="675.5">Visualizzazione</text><text fill="#000000" stroke="none" font-family="Arial" font-size="13px" font-style="normal" font-weight="bold" text-decoration="none" x="295.707763671875" y="688.5">mappa delle location</text></g></g><g transform="translate(-46,-302) scale(1,1)"><path fill="none" stroke="#000000" d="M 125 546 L 286 631" stroke-miterlimit="10"/></g><g transform="translate(-46,-302) scale(1,1)"><path fill="none" stroke="#000000" d="M 519 587 L 435 631" stroke-miterlimit="10" stroke-dasharray="3"/></g><g transform="translate(-46,-302) scale(1,1)"><path fill="none" stroke="#000000" d="M 442.04917218870094 622.555524204899 L 435 631 L 445.95566355466354 630.0133713581005" stroke-miterlimit="10"/></g><g transform="translate(-46,-302) scale(1,1)"><g><path fill="none" stroke="none"/><text fill="#000000" stroke="none" font-family="Arial" font-size="13px" font-style="normal" font-weight="normal" text-decoration="none" x="463.5" y="640">«extend»</text></g></g></g></svg>