<svg version="1.1" xmlns="http://www.w3.org/2000/svg" xmlns:xlink="http://www.w3.org/1999/xlink" width="344.45361328125" height="235"><defs/><g><text fill="#eeeeee" stroke="none" font-family="Arial" font-size="24px" font-style="normal" font-weight="normal" text-decoration="none" x="0" y="0"></text><text fill="#eeeeee" stroke="none" font-family="Arial" font-size="24px" font-style="normal" font-weight="normal" text-decoration="none" x="0" y="30"></text><text fill="#eeeeee" stroke="none" font-family="Arial" font-size="24px" font-style="normal" font-weight="normal" text-decoration="none" x="0" y="60"></text><text fill="#eeeeee" stroke="none" font-family="Arial" font-size="24px" font-style="normal" font-weight="normal" text-decoration="none" x="0" y="90"></text><text fill="#eeeeee" stroke="none" font-family="Arial" font-size="24px" font-style="normal" font-weight="normal" text-decoration="none" x="0" y="120"></text><text fill="#eeeeee" stroke="none" font-family="Arial" font-size="24px" font-style="normal" font-weight="normal" text-decoration="none" x="0" y="150"></text><text fill="#eeeeee" stroke="none" font-family="Arial" font-size="24px" font-style="normal" font-weight="normal" text-decoration="none" x="0" y="180"></text><text fill="#eeeeee" stroke="none" font-family="Arial" font-size="24px" font-style="normal" font-weight="normal" text-decoration="none" x="0" y="210"></text><text fill="#eeeeee" stroke="none" font-family="Arial" font-size="24px" font-style="normal" font-weight="normal" text-decoration="none" x="200" y="0"></text><text fill="#eeeeee" stroke="none" font-family="Arial" font-size="24px" font-style="normal" font-weight="normal" text-decoration="none" x="200" y="30"></text><text fill="#eeeeee" stroke="none" font-family="Arial" font-size="24px" font-style="normal" font-weight="normal" text-decoration="none" x="200" y="60"></text><text fill="#eeeeee" stroke="none" font-family="Arial" font-size="24px" font-style="normal" font-weight="normal" text-decoration="none" x="200" y="90"></text><text fill="#eeeeee" stroke="none" font-family="Arial" font-size="24px" font-style="normal" font-weight="normal" text-decoration="none" x="200" y="120"></text><text fill="#eeeeee" stroke="none" font-family="Arial" font-size="24px" font-style="normal" font-weight="normal" text-decoration="none" x="200" y="150"></text><text fill="#eeeeee" stroke="none" font-family="Arial" font-size="24px" font-style="normal" font-weight="normal" text-decoration="none" x="200" y="180"></text><text fill="#eeeeee" stroke="none" font-family="Arial" font-size="24px" font-style="normal" font-weight="normal" text-decoration="none" x="200" y="210"></text><g transform="translate(-78,-286) scale(1,1)"><path fill="#ffffff" stroke="none" d="M 233.32463352272728 305.68 C 233.32463352272728 300.886167936 237.21047584767274 297 242.00390625 297 C 246.79733665232726 297 250.68317897727272 300.886167936 250.68317897727272 305.68 C 250.68317897727272 310.473832064 246.79733665232726 314.36 242.00390625 314.36 C 237.21047584767274 314.36 233.32463352272728 310.473832064 233.32463352272728 305.68 Z"/></g><g transform="translate(-78,-286) scale(1,1)"><path fill="none" stroke="#000000" d="M 233.32463352272728 305.68 C 233.32463352272728 300.886167936 237.21047584767274 297 242.00390625 297 C 246.79733665232726 297 250.68317897727272 300.886167936 250.68317897727272 305.68 C 250.68317897727272 310.473832064 246.79733665232726 314.36 242.00390625 314.36 C 237.21047584767274 314.36 233.32463352272728 310.473832064 233.32463352272728 305.68 Z" stroke-miterlimit="10"/></g><g transform="translate(-78,-286) scale(1,1)"><path fill="none" stroke="#000000" d="M 242.00390625 314.36 L 242.00390625 331.64" stroke-miterlimit="10"/></g><g transform="translate(-78,-286) scale(1,1)"><path fill="none" stroke="#000000" d="M 232.81408806818183 320.84 L 251.19372443181817 320.84" stroke-miterlimit="10"/></g><g transform="translate(-78,-286) scale(1,1)"><path fill="none" stroke="#000000" d="M 242.00390625 331.64 L 229.24026988636365 349" stroke-miterlimit="10"/></g><g transform="translate(-78,-286) scale(1,1)"><path fill="none" stroke="#000000" d="M 242.00390625 331.64 L 254.76754261363635 349" stroke-miterlimit="10"/></g><g transform="translate(-78,-286) scale(1,1)"><g><path fill="none" stroke="none"/><text fill="#000000" stroke="none" font-family="Arial" font-size="13px" font-style="normal" font-weight="bold" text-decoration="none" x="212.5" y="368">Visitatore</text></g></g><g transform="translate(-78,-286) scale(1,1)"><path fill="#ffffff" stroke="none" d="M 135.83024875710228 441.68 C 135.83024875710228 436.886167936 139.71609108204774 433 144.509521484375 433 C 149.30295188670226 433 153.18879421164772 436.886167936 153.18879421164772 441.68 C 153.18879421164772 446.473832064 149.30295188670226 450.36 144.509521484375 450.36 C 139.71609108204774 450.36 135.83024875710228 446.473832064 135.83024875710228 441.68 Z"/></g><g transform="translate(-78,-286) scale(1,1)"><path fill="none" stroke="#000000" d="M 135.83024875710228 441.68 C 135.83024875710228 436.886167936 139.71609108204774 433 144.509521484375 433 C 149.30295188670226 433 153.18879421164772 436.886167936 153.18879421164772 441.68 C 153.18879421164772 446.473832064 149.30295188670226 450.36 144.509521484375 450.36 C 139.71609108204774 450.36 135.83024875710228 446.473832064 135.83024875710228 441.68 Z" stroke-miterlimit="10"/></g><g transform="translate(-78,-286) scale(1,1)"><path fill="none" stroke="#000000" d="M 144.509521484375 450.36 L 144.509521484375 467.64" stroke-miterlimit="10"/></g><g transform="translate(-78,-286) scale(1,1)"><path fill="none" stroke="#000000" d="M 135.31970330255683 456.84 L 153.69933966619317 456.84" stroke-miterlimit="10"/></g><g transform="translate(-78,-286) scale(1,1)"><path fill="none" stroke="#000000" d="M 144.509521484375 467.64 L 131.74588512073865 485" stroke-miterlimit="10"/></g><g transform="translate(-78,-286) scale(1,1)"><path fill="none" stroke="#000000" d="M 144.509521484375 467.64 L 157.27315784801135 485" stroke-miterlimit="10"/></g><g transform="translate(-78,-286) scale(1,1)"><g><path fill="none" stroke="none"/><text fill="#000000" stroke="none" font-family="Arial" font-size="13px" font-style="normal" font-weight="bold" text-decoration="none" x="92.5" y="504">Utente registrato</text></g></g><g transform="translate(-78,-286) scale(1,1)"><path fill="#ffffff" stroke="none" d="M 333.54753391335225 441.68 C 333.54753391335225 436.886167936 337.43337623829774 433 342.226806640625 433 C 347.02023704295226 433 350.90607936789775 436.886167936 350.90607936789775 441.68 C 350.90607936789775 446.473832064 347.02023704295226 450.36 342.226806640625 450.36 C 337.43337623829774 450.36 333.54753391335225 446.473832064 333.54753391335225 441.68 Z"/></g><g transform="translate(-78,-286) scale(1,1)"><path fill="none" stroke="#000000" d="M 333.54753391335225 441.68 C 333.54753391335225 436.886167936 337.43337623829774 433 342.226806640625 433 C 347.02023704295226 433 350.90607936789775 436.886167936 350.90607936789775 441.68 C 350.90607936789775 446.473832064 347.02023704295226 450.36 342.226806640625 450.36 C 337.43337623829774 450.36 333.54753391335225 446.473832064 333.54753391335225 441.68 Z" stroke-miterlimit="10"/></g><g transform="translate(-78,-286) scale(1,1)"><path fill="none" stroke="#000000" d="M 342.226806640625 450.36 L 342.226806640625 467.64" stroke-miterlimit="10"/></g><g transform="translate(-78,-286) scale(1,1)"><path fill="none" stroke="#000000" d="M 333.03698845880683 456.84 L 351.41662482244317 456.84" stroke-miterlimit="10"/></g><g transform="translate(-78,-286) scale(1,1)"><path fill="none" stroke="#000000" d="M 342.226806640625 467.64 L 329.46317027698865 485" stroke-miterlimit="10"/></g><g transform="translate(-78,-286) scale(1,1)"><path fill="none" stroke="#000000" d="M 342.226806640625 467.64 L 354.99044300426135 485" stroke-miterlimit="10"/></g><g transform="translate(-78,-286) scale(1,1)"><g><path fill="none" stroke="none"/><text fill="#000000" stroke="none" font-family="Arial" font-size="13px" font-style="normal" font-weight="bold" text-decoration="none" x="276.5" y="504">Utente non registrato</text></g></g><g transform="translate(-78,-286) scale(1,1)"><path fill="none" stroke="#000000" d="M 173 431 L 212 376" stroke-miterlimit="10"/></g><g transform="translate(-78,-286) scale(1,1)"><path fill="#FFFFFF" stroke="none" d="M 207.11091699414817 397.4498687026725 L 212 376 L 193.37554863755742 387.7102438679991"/></g><g transform="translate(-78,-286) scale(1,1)"><path fill="none" stroke="#000000" d="M 207.11091699414817 397.4498687026725 L 212 376 L 193.37554863755742 387.7102438679991 L 207.11091699414817 397.4498687026725" stroke-miterlimit="10"/></g><g transform="translate(-78,-286) scale(1,1)"><path fill="none" stroke="#000000" d="M 313 431 L 272 376" stroke-miterlimit="10"/></g><g transform="translate(-78,-286) scale(1,1)"><path fill="#FFFFFF" stroke="none" d="M 290.8976790374815 387.26400137590247 L 272 376 L 277.3978252398948 397.3275287522853"/></g><g transform="translate(-78,-286) scale(1,1)"><path fill="none" stroke="#000000" d="M 290.8976790374815 387.26400137590247 L 272 376 L 277.3978252398948 397.3275287522853 L 290.8976790374815 387.26400137590247" stroke-miterlimit="10"/></g></g></svg>